<svg width="46" height="46" viewBox="0 0 46 46" fill="none" xmlns="http://www.w3.org/2000/svg">
<path fill-rule="evenodd" clip-rule="evenodd" d="M46 22.9999C46 35.7025 35.7026 46 23 46C10.2974 46 0 35.7025 0 22.9999C0 10.2975 10.2974 0 23 0C35.7026 0 46 10.2975 46 22.9999Z" fill="white"/>
<path fill-rule="evenodd" clip-rule="evenodd" d="M23.0003 32.8574C17.565 32.8574 13.1431 28.4355 13.1431 23.0002C13.1431 17.5649 17.565 13.1431 23.0003 13.1431C28.4355 13.1431 32.8574 17.5649 32.8574 23.0002C32.8574 28.4355 28.4355 32.8574 23.0003 32.8574V32.8574ZM31.3115 24.3498C31.0235 24.2589 28.7055 23.5675 26.0671 23.9899C27.1683 27.0161 27.6165 29.4807 27.7028 29.9929C29.5916 28.7157 30.9363 26.6925 31.3115 24.3498V24.3498ZM26.29 30.7638C26.1648 30.0251 25.676 27.4506 24.4939 24.3789C24.4754 24.3853 24.4569 24.3913 24.4384 24.3977C19.6894 26.0525 17.9847 29.3458 17.8332 29.6556C19.2608 30.7688 21.0548 31.4329 23.0012 31.4329C24.1675 31.4329 25.2791 31.1943 26.29 30.7638V30.7638ZM16.7464 28.6427C16.9371 28.3163 19.2479 24.4903 23.5902 23.0867C23.6999 23.0513 23.8105 23.0179 23.922 22.9866C23.7106 22.5082 23.4804 22.0294 23.2393 21.5577C19.0347 22.8161 14.9546 22.7634 14.5863 22.7559C14.5837 22.8414 14.582 22.9271 14.582 23.0132C14.582 25.1756 15.4017 27.1501 16.7464 28.6427V28.6427ZM14.7564 21.2881C15.133 21.2931 18.6017 21.3081 22.5401 20.2623C21.1451 17.7824 19.6405 15.6974 19.4186 15.393C17.063 16.504 15.3023 18.6754 14.7564 21.2881V21.2881ZM21.0266 14.8261C21.2594 15.1377 22.7886 17.2201 24.1682 19.755C27.1621 18.6328 28.4295 16.9293 28.581 16.7136C27.0941 15.3945 25.1389 14.592 22.9997 14.592C22.3204 14.592 21.6598 14.6735 21.0266 14.8261V14.8261ZM29.5175 17.6884C29.34 17.9285 27.9292 19.7371 24.8161 21.0081C25.0121 21.4092 25.1999 21.8171 25.3748 22.2277C25.4367 22.3732 25.4971 22.518 25.5561 22.6622C28.3576 22.3099 31.1412 22.8744 31.4188 22.9332C31.4003 20.9459 30.6902 19.1211 29.5175 17.6884V17.6884Z" fill="#836853"/>
</svg>
