<svg width="46" height="46" viewBox="0 0 46 46" fill="none" xmlns="http://www.w3.org/2000/svg">
<path fill-rule="evenodd" clip-rule="evenodd" d="M23 46C35.7025 46 46 35.7025 46 23C46 10.2975 35.7025 0 23 0C10.2975 0 0 10.2975 0 23C0 35.7025 10.2975 46 23 46Z" fill="white"/>
<path fill-rule="evenodd" clip-rule="evenodd" d="M26.673 16.6298C26.1758 16.4725 25.604 16.3676 25.0819 16.3676C24.4355 16.3676 23.0434 16.8133 23.0434 17.6784V19.7494H26.3498V23.2362H23.0434V32.8574H19.7121V23.2362H18.0713V19.7494H19.7121V17.993C19.7121 15.3452 20.8557 13.1431 23.6152 13.1431C24.5599 13.1431 26.2504 13.1955 27.1702 13.5363L26.673 16.6298Z" fill="#836853"/>
</svg>
