<?xml version="1.0" encoding="utf-8"?>
<!-- Generator: Adobe Illustrator 26.5.0, SVG Export Plug-In . SVG Version: 6.00 Build 0)  -->
<svg version="1.1" id="Layer_1" xmlns="http://www.w3.org/2000/svg" xmlns:xlink="http://www.w3.org/1999/xlink" x="0px" y="0px"
	 viewBox="0 0 1280 1024" style="enable-background:new 0 0 1280 1024;" xml:space="preserve">
<g>
	<path d="M190.3,518.1c0-22.8,0.1-45.6-0.1-68.4c0-2.1-1.1-4.8-2.7-6.2c-9.6-8.7-9-23.1,2.6-29c7.7-3.9,16.5-6.5,25-7.6
		c44.6-5.6,89.3-6,133.8,1c7.3,1.1,15,4,21.2,8c9.9,6.4,9.7,19.7,0.8,27.4c-1.1,1-1.8,2.5-2.7,3.7c1.6,0.5,3.1,1.4,4.7,1.4
		c8.5,0.1,17-0.1,25.5,0.1c3.7,0.1,3.8-1,2.5-3.9c-1.2-2.5-2.3-5.2-2.7-8c-1.3-9,4.8-17.2,15.2-18.9c9.8-1.5,19.9-2.3,29.8-2.1
		c19.9,0.3,40-0.1,59.5,4.9c35.4,9.1,61.3,40.1,64.5,76.6c4.5,52.1-35.6,95.9-87.8,96c-13.1,0-26.1-0.3-39.2,2.3
		c-7.1,1.5-14.9,0.6-22.3,0c-9.7-0.9-16.1-6.9-18.4-16.3c-0.6-2.7-1.6-3.5-4.3-3.4c-7.5,0.2-15,0.2-22.5,0c-3.3-0.1-5,0.7-4.6,4.4
		c2,20.8-10.3,29.3-27.2,34.2c-40.9,11.8-82.1,11.7-123,0c-7-2-13.6-6.2-19.6-10.4c-5.8-4.1-8-10.8-8-18
		C190.4,563.4,190.4,540.7,190.3,518.1z M315.5,595.3c0.1-1.4,0.2-2.8,0.2-4.2c0-42.4,0-84.9,0-127.3c0-9.6,1.3-8.4-8.1-8.1
		c-32,0.9-63.9,1.3-95.6-3.8c-3.1-0.5-3.7,0.6-3.7,3.4c0.1,11.8,0,23.6,0.1,35.4c0,0.7,0.3,1.4,0.6,2.9c5.5-5.5,10.3-10.5,15.3-15.4
		c3.9-3.8,8.4-4.1,11.4-0.9c3.3,3.3,3,7.2-1,11.4c-7,7.1-13.6,14.7-21.2,21.1c-7.3,6-4.6,13.1-4.2,20.5c5.6-4.8,10.4-10,15.4-15.1
		c3.8-3.9,8.3-4.3,11.5-1.3c3.4,3.2,3,7.7-1,11.8c-8.1,8.1-16.2,16.2-24.3,24.4c-1,1-2.3,2.3-2.3,3.6c-0.3,4.6-0.1,9.2-0.1,14.7
		c1.7-1.5,2.7-2.2,3.6-3.1c7.6-7.5,15.1-15,22.6-22.5c2.8-2.8,6.5-3.9,9.4-1.4c2,1.7,2.8,5.2,3.2,8.1c0.2,1.3-1.6,3.2-2.8,4.4
		c-9.8,9.9-19.8,19.7-29.6,29.7c-1.3,1.3-3.3,3.2-3.1,4.6c0.4,3,10.1,4.8,12.5,2.5c5.6-5.5,11-11.1,16.6-16.5c1.4-1.4,3-2.9,4.8-3.4
		c3.2-1,6.3-0.2,8.2,3c2.1,3.5,1.6,6.7-1.2,9.5c-4.3,4.5-8.7,8.9-13.6,13.9c3.7,0.6,6.5,0.7,9.2,1.4c4.5,1.2,7.5-0.8,10.5-3.9
		c4.3-4.6,8.9-9,13.4-13.4c4.1-4,7.9-4.4,11.3-1.3c3.3,3.1,3,7.7-1,11.8c-2.4,2.5-4.8,5-7.7,8c10.3,1,18.7,0.3,24.6-8.6
		c2-3.1,5.4-5.7,9.8-4.5C313.4,587.8,314.9,591.2,315.5,595.3z M439,429.4c-8.5,0.6-14.4,1-20.4,1.5c-4.3,0.4-5.9,2.9-4.6,6.8
		c0.7,2.3,1.7,4.9,3.4,6.5c6.4,6.4,14.1,10.5,23.2,11.5c8.9,1,17.9,1.9,26.8,2.7c6.7,0.6,10.8,3.9,13.3,10.2
		c3.5,8.9,7.7,17.6,11.8,26.3c1.3,2.8,0.2,4.4-2.3,4.6c-2.2,0.2-5,0.1-6.7-1.1c-2.9-2-5.6-4.7-7.7-7.5c-3.2-4.2-5.7-9-8.7-13.3
		c-0.7-1.1-2.2-1.7-3.3-2.5c-0.2,1.1-0.4,2.1-0.6,3.2c-1.1,5.3-2.3,10.6-3.3,16c-0.2,1.4-0.2,3.3,0.6,4.3c7.4,9.3,7.2,19.2,2.9,29.6
		c-0.5,1.2-0.9,3.1-0.3,4c6.1,8.7,5.6,17.7,1.5,27c-0.5,1.1-0.4,2.6-0.3,3.9c0.2,3.6,0.8,7.3,0.8,10.9c0,2.6,0.7,3.6,3.3,3.5
		c4.5-0.2,9,0.1,13.5-0.1c22.8-0.9,41.7-10.3,55.3-28.5c32.4-43.6,9.3-103.7-44-113.9C474.6,431.3,455.5,430.9,439,429.4z
		 M330.5,523.2c0,9,0,18,0,26.9c0,12.8,0,25.6,0.1,38.4c0,1.1,1.1,3,1.7,3c4.9,0.1,10-5.2,10.1-10.2c0-17.6,0-35.3,0-52.9
		c0-23.6,0-47.2,0-70.9c0-1.5-0.6-4.4-0.9-4.4c-3.3,0-6.7,0.2-9.8,1.1c-0.8,0.2-1,3.2-1,4.9C330.5,480.6,330.5,501.9,330.5,523.2z
		 M207.3,429c22.2,10.6,133.5,9.5,144.9-0.7C303.2,420.6,255.2,420.5,207.3,429z M416.3,493.7c0,0.3,0,0.5,0,0.8
		c8.2-0.8,16.6-1.2,24.7-2.4c8.6-1.3,12.7-9.5,9-17.6c-0.6-1.3-2-2.9-3.3-3.2c-12.2-3-24.2-7.2-37-6.8c-4.5,0.1-9.3,1-13.4,2.7
		c-5.8,2.4-7.9,9.6-5.9,17.3c1.4,5.7,5.9,9.1,12,9.2C407,493.8,411.6,493.7,416.3,493.7z M426.9,504.7c-6.2,0.4-10.3,0.6-14.5,0.9
		c-4.1,0.2-8.3,0.6-12.4,0.7c-3.8,0.1-6.1,2.1-7.8,5.2c-4.4,8,0.5,18.9,9.5,20c15.2,1.9,30.1-0.8,44.7-5.1c5.7-1.7,9-10.2,7-15.9
		c-1.3-3.7-3.6-6.1-8.1-5.9C438.6,504.9,431.7,504.7,426.9,504.7z M368.2,511.6C368.1,511.6,368.1,511.6,368.2,511.6
		c0,12,0,23.9,0,35.9c0,14.2,0,14.1,14.1,13.8c3.2-0.1,4.2-0.6,2.9-4c-2.1-5.7-2.4-11.6-0.4-17.6c0.4-1.3-0.3-3.4-1.2-4.6
		c-7-9.4-8-21-2.1-30.8c1.6-2.8,1.8-4.7-0.2-7.5c-6-8.4-6.1-17.7-2.7-27.1c2.5-6.8,2.8-6.7-4.8-6.7c-0.5,0-1,0.1-1.5,0
		c-3.4-0.5-4.2,1.1-4.2,4.2C368.2,482,368.2,496.8,368.2,511.6z M418.7,562.3c6.4-1.2,13.7-2.1,20.8-3.9c4.1-1,8.1-3,11.8-5.1
		c3.3-1.9,4.1-7.8,2.4-11.7c-1.8-4.2-5.1-3.2-8.4-2.8c-13.7,1.7-27.3,3.5-41,4.8c-7.8,0.8-9.7,3.1-6.9,10.5c1.5,4.1,4.5,6.7,8.7,7.3
		C409.9,561.9,413.9,562,418.7,562.3z M426.6,584.9c4.4-0.4,7.4-0.5,10.4-0.9c2.5-0.3,4.9-0.8,7.3-1.6c5.4-1.6,8.6-6.1,8.5-11.5
		c-0.1-2.2-0.5-3.1-3.3-2.6c-11.2,2-22.6,3.8-33.9,5.5c-4.5,0.7-5.6,2.4-3,6.1c0.9,1.4,2.6,2.8,4.2,3.3
		C420.4,584.2,424.2,584.6,426.6,584.9z"/>
	<path d="M280.1,362.2c-14.5,1-22.2,0.1-29-19.8c-6.7-19.8-6.4-39.9,2-59.4c4.1-9.4,10.6-15.6,21.9-14.6c3.3,0.3,6.7,0.3,10,0
		c9.5-0.8,15.7,4.3,19.3,12.1c10.8,23.2,10.8,46.6-0.1,69.8c-3.5,7.5-9.4,12.4-18.5,11.9C283.5,362.1,281.4,362.2,280.1,362.2z
		 M302.1,315.2c-0.6-10.5-1.5-21.1-7.1-30.6c-5.1-8.5-9.8-8.2-14.8,0.4c-0.2,0.3-0.4,0.6-0.5,0.9c-8.2,19.7-8.4,39.4,0.2,58.9
		c1.4,3.1,5,6.5,8.1,7.1c1.9,0.4,5.6-3.6,7.3-6.4C300.7,336.3,301.4,325.8,302.1,315.2z M263.5,315.9c0.6-12.5,1.7-23.6,6.8-33.8
		c0.5-1.1,0.6-2.4,0.9-3.5c-1.3,0.5-3.4,0.6-3.9,1.5c-3,5.5-5.7,11.1-8.2,16.7c-0.5,1.1-0.4,3,0.2,4.1c1.6,2.7,1.4,4.7-1,7
		c-1.9,1.8-3.3,4.2,0.3,6.3c1.4,0.8,3.6,2.3,3.5,3.4c-0.1,1.5-2,2.8-3.1,4.3c-0.6,0.8-1.2,1.6-1.7,2.5c0.8,0.6,1.6,1.5,2.5,1.6
		c2.9,0.5,4.9,0,4.1-3.8C263.5,319.5,263.6,317,263.5,315.9z M262.3,332.9c-1.2,0.9-2,1.6-2.9,2.3c1.1,0.6,2.2,1.7,3.4,1.8
		c0.9,0.1,2-1,2.9-1.5C264.7,334.7,263.7,334,262.3,332.9z M263.7,344.7c-0.1,0.6-0.3,1.2-0.4,1.7c1.6,0.4,3.3,0.8,5,1.1
		c0.1,0,0.5-1.2,0.7-1.8C267.2,345.4,265.5,345,263.7,344.7z"/>
	<path d="M947.6,549c-7.8,0-15.6,0.2-23.5-0.1c-4.9-0.2-5,2-4,5.7c3.1,10.8,11,17.5,22.7,18.7c8,0.8,15.9,0,23.4-3.3
		c1.1-0.5,2.1-1,3.2-1.4c3.3-1,6.5-0.6,8.2,2.7c1.6,3.2-0.1,5.8-2.9,7.6c-10.4,6.6-21.9,8.2-34,7c-11.6-1.1-21.5-5.3-28.4-15.2
		c-10.8-15.3-8.8-44.3,4-57.8c10.4-11.1,29-13.9,44.4-6.8c12.4,5.7,21.6,22.8,20,36.8c-0.5,4.7-3.7,6-7.7,6
		C964.5,549.1,956,549,947.6,549C947.6,549,947.6,549,947.6,549z M943,538C943,538,943,538,943,538c7,0.1,14,0.2,20.9-0.1
		c1.1,0,3.1-1.8,3.1-2.7c-0.6-11.4-11.1-21.2-22.8-21.5c-12.4-0.3-22.9,8.4-24.5,20.3c-0.4,3,0.1,4.2,3.4,4.1
		C929.7,537.8,936.3,538,943,538z"/>
	<path d="M817.8,575.9c-6.3,3-12.3,6.5-18.7,8.8c-7.3,2.5-15,2.5-22.4-0.5c-9.1-3.7-14.1-10.5-14.7-20c-0.7-10.1,3.7-18,13-22.1
		c5.2-2.3,11-3.7,16.7-4.3c7.2-0.8,14.6-0.4,21.9-0.3c3.4,0.1,4.7-0.8,4.5-4.5c-0.6-12.3-8.9-19-23.2-17.7
		c-6.2,0.5-12.4,2.1-18.6,3.3c-3.3,0.6-6.7,1.6-8.5-2.6c-1.5-3.6,0.1-6.6,4.8-8.3c11.4-4.2,23-6.8,35.2-4.4
		c14.7,2.9,24,14.3,24.1,29.3c0.1,14.6,0,29.3,0,43.9c0,6-2.3,9-6.8,9c-4.2,0.1-6.4-2.6-6.9-8.5
		C817.9,576.4,817.7,575.8,817.8,575.9z M804.6,547.9c0-0.2,0-0.3-0.1-0.5c-6.4,0.8-12.9,1.1-19.2,2.6c-7.1,1.7-9.9,5.7-9.6,12
		c0.2,6.1,3.9,10.3,10.8,11.7c12,2.5,21.8-2.1,30.2-10.3c0.6-0.6,1-1.7,1.2-2.6c2.1-11.6,0.8-13.2-10.8-12.9
		C806.2,547.9,805.4,547.9,804.6,547.9z"/>
	<path d="M657.4,544.2c-0.1,13.6-3.8,25.8-15.2,34.1c-13.5,9.8-28.6,10.7-43.5,4.1c-13.8-6-20.7-17.7-21.9-32.6
		c-1.2-13.8,0.9-26.8,11.6-36.6c13.8-12.8,30.3-14.2,46.9-7C651.4,513.1,657.3,527.3,657.4,544.2z M617.4,573.7
		c15.9-0.1,26.6-12.2,26.4-29.8c-0.1-17.6-11.1-29.3-27.1-29.2c-16.3,0.1-26.7,11.9-26.6,30.1C590.2,562.3,601.1,573.8,617.4,573.7z
		"/>
	<path d="M688.8,517.1c6.8-7,13.2-11.9,21.7-13.9c18.7-4.5,35.8,8.1,36.3,27.3c0.4,15.8,0.1,31.6,0.1,47.4c0,4.6-2.8,7.6-6.7,7.7
		c-3.9,0.1-6.7-2.8-6.8-7.6c-0.1-13-0.1-25.9-0.1-38.9c0-1.5,0-3,0-4.5c-0.4-16.7-12.8-24.7-28-17.5c-5.4,2.6-10,7-14.5,11
		c-1.4,1.3-1.9,4.2-1.9,6.3c-0.2,14.3,0,28.6-0.4,42.9c-0.1,2.5-2,5.6-4,7.1c-1.4,1-5,0.5-6.7-0.6c-1.6-1-2.7-3.8-2.7-5.9
		c-0.2-22.4-0.1-44.9-0.1-67.3c0-4.4,2.1-7,6.4-7.4c3.9-0.4,6.9,2.6,7.3,7.1C688.7,512.1,688.7,513.9,688.8,517.1z"/>
	<path d="M857.7,543.2c0-7.8-0.1-15.6,0.1-23.4c0.1-3.2-0.8-4.6-4.1-4.2c-1.8,0.2-3.7,0.1-5.5-0.1c-3.5-0.5-4.6-2.7-4.5-6
		c0-3.2,1.5-4.9,4.6-5.4c0.3,0,0.7-0.1,1-0.1c8.2-0.8,8.3-0.8,8.5-9.3c0.1-4.4,1.8-6.9,6.5-6.9c5.2,0,6.9,1.4,7.4,6.5
		c0.8,9.6,0.8,9.6,10.4,9.6c2.2,0,4.3,0,6.5,0c5.1,0.1,7.6,2.1,7.4,6c-0.2,4.6-3.4,5.7-7.3,5.7c-4,0-8,0.2-12,0
		c-3.8-0.2-5.2,0.8-5.1,4.9c0.2,14.5,0.1,28.9,0.1,43.4c0,7.6,3.4,10.9,11.1,10.6c2.6-0.1,5.3-1.4,7.8-1c2.2,0.3,5.2,1.6,6.1,3.4
		c1.5,2.9,0.1,5.6-3.4,7c-9.3,3.8-18.6,3.8-27.4-0.9c-6.2-3.3-7.9-9.6-8.1-16.1C857.5,558.8,857.7,551,857.7,543.2
		C857.7,543.2,857.7,543.2,857.7,543.2z"/>
	<path d="M284.3,180.6c0,12.3,0,24.6,0,36.9c0,3.8-0.4,7.4-5.3,7.3c-4.5-0.1-4.9-3.6-4.9-7.2c0-24.8,0.1-49.5,0-74.3
		c0-3.8,0.8-7,5.1-7.1c4.3,0,5.2,3.1,5.2,6.9C284.3,155.7,284.3,168.2,284.3,180.6z"/>
	<path d="M256.3,221.9c0,8.8-0.1,17.6,0,26.4c0.1,3.3-0.8,5.7-4.4,5.9c-3.7,0.2-5.5-1.9-5.5-5.5c0-18.3,0-36.5,0-54.8
		c0-3.4,1.6-5.5,5-5.5c3.5,0,4.9,2.2,4.9,5.6c0,9.3,0,18.6,0,27.9C256.4,221.9,256.4,221.9,256.3,221.9z"/>
	<path d="M302,219c0-5.5-0.1-11,0-16.4c0.1-3.1,1-5.5,4.9-5.5c3.8,0,4.9,2.5,4.9,5.5c0.1,10.8,0,21.6-0.1,32.4c0,3.1-1.7,5.1-4.9,5
		c-3.2-0.1-4.9-1.9-4.9-5.1C301.9,229.6,302,224.3,302,219C302,219,302,219,302,219z"/>
</g>
</svg>
