<svg width="46" height="46" viewBox="0 0 46 46" fill="none" xmlns="http://www.w3.org/2000/svg">
<path fill-rule="evenodd" clip-rule="evenodd" d="M46 22.9999C46 35.7025 35.7026 46 23 46C10.2974 46 0 35.7025 0 22.9999C0 10.2975 10.2974 0 23 0C35.7026 0 46 10.2975 46 22.9999Z" fill="white"/>
<path fill-rule="evenodd" clip-rule="evenodd" d="M28.9732 32.0351V25.0476C28.9732 23.7224 28.6118 22.3068 27.0155 22.3068C26.1119 22.3068 25.3289 22.9393 25.0277 23.7826C24.9072 24.1139 24.9072 24.4452 24.9072 24.7765V32.0351H21.052C21.052 27.8185 21.0821 23.632 20.9617 19.4154H24.3048L24.4855 21.1924H24.5458C25.359 19.8672 26.8649 19.1443 28.4009 19.1443C31.5935 19.1443 32.8585 21.7044 32.8585 24.5958V32.0351H28.9732ZM14.878 32.0355V19.4159H18.7331V32.0355H14.878ZM16.8337 13.9644C17.9782 13.9644 18.8516 14.7474 18.8516 15.9221C18.8516 17.1268 17.9481 17.8798 16.7735 17.8798C15.629 17.8798 14.7856 17.0666 14.7856 15.9221C14.7856 14.7474 15.6892 13.9644 16.8337 13.9644V13.9644Z" fill="#836853"/>
</svg>
