<svg width="55" height="54" viewBox="0 0 55 54" fill="none" xmlns="http://www.w3.org/2000/svg">
<rect width="54.0013" height="54" rx="6" fill="#836853"/>
<path d="M36.5165 39.9976C36.3814 39.9976 36.2462 39.9976 36.1111 39.9976C35.7966 39.8995 35.5828 39.6885 35.3911 39.4284C34.6416 38.4151 33.8799 37.4117 33.123 36.4057C33.0739 36.3419 33.0198 36.2806 32.9805 36.2364C28.9702 38.7905 24.9919 38.7856 20.9988 36.234C20.9546 36.2904 20.903 36.3567 20.8514 36.4229C20.1142 37.4018 19.3745 38.3808 18.6423 39.3646C18.4432 39.6321 18.2343 39.8774 17.9149 40.0001C17.7798 40.0001 17.6446 40.0001 17.5094 40.0001C16.6617 39.6983 16.615 38.9107 17.0917 38.317C17.9051 37.3012 18.6644 36.2413 19.4458 35.1986C19.4998 35.1275 19.5515 35.0514 19.6006 34.9802C15.4134 30.51 16.1923 24.0622 19.9667 20.4998C23.7362 16.9422 29.6484 16.7705 33.6366 20.1661C35.6196 21.8541 36.7918 24.0156 37.1161 26.5918C37.5191 29.7985 36.5583 32.593 34.3836 34.9876C34.7031 35.4121 35.0176 35.8316 35.3321 36.2487C35.885 36.9847 36.4428 37.7183 36.9908 38.4617C37.4085 39.0285 37.239 39.6541 36.5976 39.9437C36.5657 39.9584 36.5411 39.9805 36.5165 39.9976ZM27.9234 25.1344C27.9234 24.2291 27.9283 23.3262 27.921 22.4208C27.916 21.7461 27.341 21.3045 26.7218 21.4861C26.2967 21.6112 26.0583 21.9743 26.0559 22.5092C26.0534 24.1407 26.0583 25.7723 26.0485 27.4039C26.0485 27.5437 25.9945 27.7057 25.9109 27.8161C25.1934 28.7876 24.4636 29.7519 23.7362 30.7185C23.6207 30.8731 23.4954 31.0252 23.3996 31.1945C23.0826 31.7466 23.3946 32.4286 24.0188 32.5513C24.4562 32.6372 24.7683 32.4433 25.0189 32.1048C25.8912 30.9394 26.7636 29.7764 27.6408 28.6159C27.8325 28.3632 27.9234 28.086 27.921 27.7695C27.921 26.8911 27.9234 26.0128 27.9234 25.1344Z" fill="white"/>
<path d="M14 18.5884C14.1007 18.1026 14.1524 17.6021 14.3096 17.136C14.9927 15.0995 17.1355 13.8115 19.2709 14.1083C20.239 14.2433 21.0819 14.6309 21.8043 15.286C22.3081 15.7424 22.3179 16.287 21.824 16.7826C20.1899 18.4167 18.5558 20.0483 16.9193 21.6798C16.8185 21.7804 16.7178 21.8859 16.6096 21.9792C16.214 22.3079 15.6808 22.2883 15.3269 21.9178C14.5627 21.118 14.1327 20.1685 14.0442 19.0644C14.0369 18.9736 14.0172 18.8828 14.0025 18.7945C14 18.7234 14 18.6547 14 18.5884Z" fill="white"/>
<path d="M40.0013 18.6159C39.9817 19.9114 39.5467 20.9983 38.6719 21.9011C38.2935 22.2912 37.7603 22.3084 37.3499 21.9551C37.2934 21.906 37.2393 21.8521 37.1853 21.7981C35.5266 20.142 33.8679 18.4859 32.2093 16.8298C31.649 16.2704 31.649 15.7404 32.2412 15.2276C33.6836 13.9862 35.33 13.6574 37.0894 14.3738C38.8538 15.0902 39.8195 16.4666 39.9841 18.3779C39.994 18.4712 39.9989 18.5644 40.0013 18.6159Z" fill="white"/>
</svg>
