<svg width="46" height="46" viewBox="0 0 46 46" fill="none" xmlns="http://www.w3.org/2000/svg">
<path fill-rule="evenodd" clip-rule="evenodd" d="M23 46C35.7025 46 46 35.7025 46 23C46 10.2975 35.7025 0 23 0C10.2975 0 0 10.2975 0 23C0 35.7025 10.2975 46 23 46Z" fill="white"/>
<path fill-rule="evenodd" clip-rule="evenodd" d="M29.3061 17.9186C29.3061 17.9186 29.3061 17.7535 29.3061 17.9186C28.4653 17.093 27.4563 16.7628 26.4473 16.9279V16.9279V16.9279C27.4563 16.7628 27.9608 16.4325 28.1289 16.2674C28.1289 16.1023 28.1289 15.9372 27.9608 15.9372C27.4563 15.9372 26.9518 16.1023 26.6154 16.2674C27.1199 15.9372 27.2881 15.7721 27.2881 15.6069C26.7836 15.6069 26.2791 15.9372 25.6064 16.4325C25.7746 16.1023 25.9428 15.9372 25.7746 15.7721C25.4383 15.9372 25.2701 16.1023 25.1019 16.4325C24.5974 16.9279 24.2611 17.2581 24.0929 17.7535V17.7535C23.4203 18.9093 22.9158 19.9 22.5794 21.0558H22.4113C22.0749 20.5605 21.5704 20.0651 20.8978 19.7349C20.2251 19.2395 19.3843 18.9093 18.3753 18.4139C17.3663 17.9186 16.3573 17.4232 15.1801 17.093C15.1801 18.2488 15.6846 19.2395 16.8618 19.9V19.9C16.5255 19.9 16.021 19.9 15.6846 20.0651C15.6846 21.0558 16.5255 21.8814 18.039 22.2117V22.2117C17.5345 22.2117 17.03 22.3768 16.5255 22.707C17.03 23.6977 17.8708 24.0279 19.2161 24.0279C19.0479 24.1931 18.7116 24.3582 18.7116 24.3582C18.5434 24.5233 18.3753 24.8535 18.5434 25.1838C18.8798 25.6791 19.2161 25.8442 20.0569 25.8442V25.8442V25.8442C18.8798 27.0001 17.3663 27.6605 15.6846 27.4954V27.4954C14.6756 27.4954 13.4985 27.0001 12.3213 26.0094C13.4985 27.6605 15.1801 28.9815 17.1981 29.8071C19.5524 30.4675 21.9068 30.6327 24.0929 29.9722V29.9722C26.2791 29.3117 28.2971 27.9908 29.8106 26.1745C30.4833 25.1838 30.9878 24.1931 31.1559 23.2024C32.3331 23.2024 33.1739 22.8721 33.6784 22.2117V22.2117C33.3421 22.3768 32.5013 22.3768 31.3241 22.0465V22.0465V22.0465C32.5013 21.8814 33.3421 21.5512 33.5103 20.8907C32.6694 21.2209 31.8286 21.2209 30.9878 20.8907C30.8196 19.7349 30.3151 18.7442 29.3061 17.9186V17.9186Z" fill="#836853"/>
</svg>
